<svg width="33" height="32" viewBox="0 0 33 32" fill="none" xmlns="http://www.w3.org/2000/svg">
<path d="M29 18.4H19.4V28H29V18.4ZM10.4 4L15.8 13.6H5L10.4 4ZM24.2 13.6C25.473 13.6 26.6939 13.0943 27.5941 12.1941C28.4943 11.2939 29 10.073 29 8.8C29 7.52696 28.4943 6.30606 27.5941 5.40589C26.6939 4.50571 25.473 4 24.2 4C22.927 4 21.7061 4.50571 20.8059 5.40589C19.9057 6.30606 19.4 7.52696 19.4 8.8C19.4 10.073 19.9057 11.2939 20.8059 12.1941C21.7061 13.0943 22.927 13.6 24.2 13.6Z" stroke="white" stroke-width="2" stroke-linejoin="round"/>
<path d="M5 18.4004L14.6 28.0004M14.6 18.4004L5 28.0004" stroke="white" stroke-width="2" stroke-linecap="round" stroke-linejoin="round"/>
</svg>
